<?xml version="1.0" encoding="utf-8"?>
<?xml-stylesheet type="text/xsl" href="rss1.xsl"?>
<rss version="2.0" xmlns:atom="http://www.w3.org/2005/Atom" xmlns:content="http://purl.org/rss/1.0/modules/content/" xmlns:dc="http://purl.org/dc/elements/1.1/" xmlns:media="http://search.yahoo.com/mrss/">
<channel>
 <title>Getty</title>
 <link>http://www.gettyimg.com/</link>
 <atom:link href="http://www.gettyimg.com/" rel="self" type="application/rss+xml" />

 
                <item>
                <title><![CDATA[【Requests】[REQ AUD] - B.o.B ft. Hayley Williams - Airplanes CDS or VLS]]></title>
                <link><![CDATA[https://sharemania.us/threads/b-o-b-ft-hayley-williams-airplanes-cds-or-vls.249264/]]></link>
                <description><![CDATA[<article>
<blockquote class="messageText SelectQuoteContainer ugc baseHtml">
Would anyone out there happen to have the CDS for this? <br>
1 <a href="https://www.discogs.com/artist/901031-BOB" target="_blank" class="externalLink" rel="nofollow">B.o.B</a> Feat. <a href="https://www.discogs.com/artist/866071-Hayley-Williams" target="_blank" class="externalLink" rel="nofollow">Hayley Williams</a>– Airplanes (Radio Version)<br>
2 <a href="https://www.discogs.com/artist/901031-BOB" target="_blank" class="externalLink" rel="nofollow">B.o.B</a> Feat. <a href="https://www.discogs.com/artist/866071-Hayley-Williams" target="_blank" class="externalLink" rel="nofollow">Hayley Williams</a>– Airplanes (Explicit Album Version)<br>
3 <a href="https://www.discogs.com/artist/901031-BOB" target="_blank" class="externalLink" rel="nofollow">B.o.B</a>– Airplanes (Instrumental)<br>
<br>
OR<br>
<br>
The VLS:<br>
A1 Airplanes (Dirty)<br>
Featuring – <a href="https://www.discogs.com/artist/866071-Hayley-Williams" target="_blank" class="externalLink" rel="nofollow">Hayley Williams</a><br>
Featuring – <a href="https://www.discogs.com/artist/866071-Hayley-Williams" target="_blank" class="externalLink" rel="nofollow">Hayley Williams</a><br>
A2 Airplanes (Acapella)<br>
Featuring – <a href="https://www.discogs.com/artist/866071-Hayley-Williams" target="_blank" class="externalLink" rel="nofollow">Hayley Williams</a><br>
Featuring – <a href="https://www.discogs.com/artist/866071-Hayley-Williams" target="_blank" class="externalLink" rel="nofollow">Hayley Williams</a><br>
A3 Airplanes (Instrumental)<br>
A4 Airplanes (Dark Intensity Remix)<br>
Featuring – <a href="https://www.discogs.com/artist/866071-Hayley-Williams" target="_blank" class="externalLink" rel="nofollow">Hayley Williams</a><br>
Featuring – <a href="https://www.discogs.com/artist/866071-Hayley-Williams" target="_blank" class="externalLink" rel="nofollow">Hayley Williams</a><br>
A5 Airplanes (Ken C Make-A-Wish Bootleg)<br>
Featuring – <a href="https://www.discogs.com/artist/866071-Hayley-Williams" target="_blank" class="externalLink" rel="nofollow">Hayley Williams</a><br>
Featuring – <a href="https://www.discogs.com/artist/866071-Hayley-Williams" target="_blank" class="externalLink" rel="nofollow">Hayley Williams</a><br>
B1 Airplanes (Dirty)<br>
Featuring – <a href="https://www.discogs.com/artist/866071-Hayley-Williams" target="_blank" class="externalLink" rel="nofollow">Hayley Williams</a><br>
Featuring – <a href="https://www.discogs.com/artist/866071-Hayley-Williams" target="_blank" class="externalLink" rel="nofollow">Hayley Williams</a><br>
B2 Airplanes (Kidd Spin &amp; Phenom Short Edit)<br>
Featuring – <a href="https://www.discogs.com/artist/866071-Hayley-Williams" target="_blank" class="externalLink" rel="nofollow">Hayley Williams</a><br>
Featuring – <a href="https://www.discogs.com/artist/866071-Hayley-Williams" target="_blank" class="externalLink" rel="nofollow">Hayley Williams</a><br>
B3 Airplanes (Dj Eazy Remix)<br>
Featuring – <a href="https://www.discogs.com/artist/866071-Hayley-Williams" target="_blank" class="externalLink" rel="nofollow">Hayley Williams</a><br>
Featuring – <a href="https://www.discogs.com/artist/866071-Hayley-Williams" target="_blank" class="externalLink" rel="nofollow">Hayley Williams</a><br>
B4 Airplanes (Koji One Edit)<br>
Featuring – <a href="https://www.discogs.com/artist/866071-Hayley-Williams" target="_blank" class="externalLink" rel="nofollow">Hayley Williams</a><br>
<br>
<br>
I would purchase it but I can't find it anywhere. I would be eternally grateful if someone has this and could share it! Thank you!
<div class="messageTextEndMarker">&nbsp;</div>
</blockquote>
</article>]]></description>
                <author><![CDATA[recaro]]></author>
                </item>

                
                <item>
                <title><![CDATA[【Singles (lossy)】Dolby Atmos - Celine Dion|Majestic|TheJamminKid - SET MY HEART ON FIRE (I'M ALIVE x AND THE BEAT GOES ON) [E-AC-3 JOC | 16bit/48kHz | 768kbits]]]></title>
                <link><![CDATA[https://sharemania.us/threads/celine-dion-majestic-thejamminkid-set-my-heart-on-fire-im-alive-x-and-the-beat-goes-on-e-ac-3-joc-16bit-48khz-768kbits.249267/]]></link>
                <description><![CDATA[<article>
<blockquote class="messageText SelectQuoteContainer ugc baseHtml">
<div style="text-align: center"><b><img src="https://is1-ssl.mzstatic.com/image/thumb/Music221/v4/34/6d/79/346d793b-09ea-dd9e-5f73-48958f290f31/196872083361.jpg/1200x1200bb.jpg" class="bbCodeImage LbImage" alt="[​IMG]" data-url="https://is1-ssl.mzstatic.com/image/thumb/Music221/v4/34/6d/79/346d793b-09ea-dd9e-5f73-48958f290f31/196872083361.jpg/1200x1200bb.jpg" style=""> <br>
Surce:</b> Apple Music<br>
<b><b>Format:</b></b> m4a [5.1 channels] (E-AC-3 JOC)<br>
​</div>
<div class="ToggleTriggerAnchor bbCodeSpoilerContainer">
<button type="button" class="button bbCodeSpoilerButton ToggleTrigger Tooltip JsOnly" data-target="> .SpoilerTarget"><span>Spoiler: <span class="SpoilerTitle">MEDIA INFO</span></span></button>
<div class="SpoilerTarget bbCodeSpoilerText">Audio<br>
ID : 1<br>
Format : E-AC-3 JOC<br>
Format/Info : Enhanced AC-3 with Joint Object Coding<br>
Commercial name : Dolby Digital Plus with Dolby Atmos<br>
Format settings : Big<br>
Codec ID : ec-3<br>
Duration : 2 min 59 s<br>
Duration_LastFrame : -23 ms<br>
Bit rate mode : Constant<br>
Bit rate : 768 kb/s<br>
Channel(s) : 6 channels<br>
Channel layout : L R C LFE Ls Rs<br>
Sampling rate : 48.0 kHz<br>
Frame rate : 31.250 FPS (1536 SPF)<br>
Compression mode : Lossy<br>
Stream size : 16.4 MiB (94%)<br>
Title : Core Media Audio<br>
Encoded date : UTC 2024-05-01 12:02:08<br>
Tagged date : UTC 2024-05-01 12:02:08<br>
Complexity index : 16<br>
Number of dynamic objects : 15<br>
Bed channel count : 1 channel<br>
Bed channel configuration : LFE</div>
</div><div style="text-align: center"><br>
<div class="bbCodeBlock bbCodeVfcHH HiddenContent">
<div class="attribution type">Hidden Content:</div>
<blockquote>You must reply before you can see the hidden data contained here.</blockquote>
</div></div>
<div class="messageTextEndMarker">&nbsp;</div>
</blockquote>
</article>]]></description>
                <author><![CDATA[msc93]]></author>
                </item>

                
                <item>
                <title><![CDATA[【Singles (lossy)】Dolby Atmos - Celine Dion - LOVE CAN MOVE MOUNTAINS (NEW EDIT 2008) [E-AC-3 JOC | 16bit/48kHz | 768kbits]]]></title>
                <link><![CDATA[https://sharemania.us/threads/celine-dion-love-can-move-mountains-new-edit-2008-e-ac-3-joc-16bit-48khz-768kbits.249265/]]></link>
                <description><![CDATA[<article>
<blockquote class="messageText SelectQuoteContainer ugc baseHtml">
<div style="text-align: center"><b><img src="https://cdn-p.smehost.net/sites/85d1df5b22b54b9ba9d6cddb43b351e8/wp-content/uploads/2019/05/MyLoveUltimateEssentialCollection-444x444.jpg" class="bbCodeImage LbImage" alt="[​IMG]" data-url="https://cdn-p.smehost.net/sites/85d1df5b22b54b9ba9d6cddb43b351e8/wp-content/uploads/2019/05/MyLoveUltimateEssentialCollection-444x444.jpg" style=""> <br>
Surce:</b> Apple Music<br>
<b><b>Format:</b></b> m4a [5.1 channels] (E-AC-3 JOC)<br>
<br>
<div class="bbCodeBlock bbCodeVfcHH HiddenContent">
<div class="attribution type">Hidden Content:</div>
<blockquote>You must reply before you can see the hidden data contained here.</blockquote>
</div></div>
<div class="messageTextEndMarker">&nbsp;</div>
</blockquote>
</article>]]></description>
                <author><![CDATA[msc93]]></author>
                </item>

                
                <item>
                <title><![CDATA[【Singles (lossy)】Dolby Atmos - Celine Dion - TO LOVE YOU MORE [E-AC-3 JOC | 16bit/48kHz | 768kbits]]]></title>
                <link><![CDATA[https://sharemania.us/threads/celine-dion-to-love-you-more-e-ac-3-joc-16bit-48khz-768kbits.249266/]]></link>
                <description><![CDATA[<article>
<blockquote class="messageText SelectQuoteContainer ugc baseHtml">
<div style="text-align: center"><b><img src="https://cdn-p.smehost.net/sites/85d1df5b22b54b9ba9d6cddb43b351e8/wp-content/uploads/2019/05/LiveaParis-444x444.jpg" class="bbCodeImage LbImage" alt="[​IMG]" data-url="https://cdn-p.smehost.net/sites/85d1df5b22b54b9ba9d6cddb43b351e8/wp-content/uploads/2019/05/LiveaParis-444x444.jpg" style=""> <br>
Surce:</b> Apple Music<br>
<b><b>Format:</b> </b>m4a [5.1 channels] (E-AC-3 JOC)<br>
​</div><div style="text-align: left">​</div>
<div class="ToggleTriggerAnchor bbCodeSpoilerContainer">
<button type="button" class="button bbCodeSpoilerButton ToggleTrigger Tooltip JsOnly" data-target="> .SpoilerTarget"><span>Spoiler: <span class="SpoilerTitle">MEDIA INFO</span></span></button>
<div class="SpoilerTarget bbCodeSpoilerText">Audio<br>
ID : 1<br>
Format : E-AC-3 JOC<br>
Format/Info : Enhanced AC-3 with Joint Object Coding<br>
Commercial name : Dolby Digital Plus with Dolby Atmos<br>
Format settings : Big<br>
Codec ID : ec-3<br>
Duration : 5 min 28 s<br>
Duration_LastFrame : -24 ms<br>
Bit rate mode : Constant<br>
Bit rate : 768 kb/s<br>
Channel(s) : 6 channels<br>
Channel layout : L R C LFE Ls Rs<br>
Sampling rate : 48.0 kHz<br>
Frame rate : 31.250 FPS (1536 SPF)<br>
Compression mode : Lossy<br>
Stream size : 30.0 MiB (99%)<br>
Title : Core Media Audio<br>
Encoded date : UTC 2024-06-14 19:01:52<br>
Tagged date : UTC 2024-06-14 19:01:52<br>
Complexity index : 16<br>
Number of dynamic objects : 15<br>
Bed channel count : 1 channel<br>
Bed channel configuration : LFE<br>
<div style="text-align: left">​</div></div>
</div><div style="text-align: left">​</div><div style="text-align: center"><br>
<div class="bbCodeBlock bbCodeVfcHH HiddenContent">
<div class="attribution type">Hidden Content:</div>
<blockquote>You must reply before you can see the hidden data contained here.</blockquote>
</div></div>
<div class="messageTextEndMarker">&nbsp;</div>
</blockquote>
</article>]]></description>
                <author><![CDATA[msc93]]></author>
                </item>

                </channel></rss>